<mxfile host="app.diagrams.net" agent="Mozilla/5.0 (Macintosh; Intel Mac OS X 10_15_7) AppleWebKit/537.36 (KHTML, like Gecko) Chrome/128.0.0.0 Safari/537.36" version="24.7.16">
  <diagram name="第 1 页" id="yOnX9EsY9148BAtsVj_Z">
    <mxGraphModel dx="1125" dy="716" grid="1" gridSize="10" guides="1" tooltips="1" connect="1" arrows="1" fold="1" page="1" pageScale="1" pageWidth="1654" pageHeight="1169" math="0" shadow="0">
      <root>
        <mxCell id="0" />
        <mxCell id="1" parent="0" />
        <mxCell id="KFxnTuWKlKOjK-bB09eL-1" value="&lt;font style=&quot;font-size: 20px;&quot;&gt;&lt;b&gt;Prompts&lt;/b&gt;&lt;/font&gt;" style="text;html=1;align=center;verticalAlign=middle;resizable=0;points=[];autosize=1;strokeColor=none;fillColor=none;" vertex="1" parent="1">
          <mxGeometry x="110" y="110" width="100" height="40" as="geometry" />
        </mxCell>
        <mxCell id="KFxnTuWKlKOjK-bB09eL-2" value="&lt;p style=&quot;margin: 0px; font-variant-numeric: normal; font-variant-east-asian: normal; font-variant-alternates: normal; font-size-adjust: none; font-kerning: auto; font-optical-sizing: auto; font-feature-settings: normal; font-variation-settings: normal; font-variant-position: normal; font-stretch: normal; line-height: normal; font-size: 18px;&quot; class=&quot;p1&quot;&gt;&lt;font face=&quot;Comic Sans MS&quot; style=&quot;font-size: 18px;&quot;&gt;A red fire hydrant stands on the sidewalk by the street.&lt;/font&gt;&lt;/p&gt;" style="rounded=0;whiteSpace=wrap;html=1;fontColor=default;strokeColor=none;fillColor=none;align=center;fontSize=18;" vertex="1" parent="1">
          <mxGeometry x="210" y="60" width="170" height="140" as="geometry" />
        </mxCell>
        <mxCell id="KFxnTuWKlKOjK-bB09eL-3" value="&lt;p style=&quot;margin: 0px; font-variant-numeric: normal; font-variant-east-asian: normal; font-variant-alternates: normal; font-size-adjust: none; font-kerning: auto; font-optical-sizing: auto; font-feature-settings: normal; font-variation-settings: normal; font-variant-position: normal; font-stretch: normal; line-height: normal; font-size: 18px;&quot; class=&quot;p1&quot;&gt;&lt;font face=&quot;Comic Sans MS&quot; style=&quot;font-size: 18px;&quot;&gt;Large motorcycle sitting on a grassy area in a line.&lt;/font&gt;&lt;/p&gt;" style="rounded=0;whiteSpace=wrap;html=1;fontColor=default;strokeColor=none;fillColor=none;align=center;fontSize=18;" vertex="1" parent="1">
          <mxGeometry x="380" y="60" width="170" height="140" as="geometry" />
        </mxCell>
      </root>
    </mxGraphModel>
  </diagram>
</mxfile>
